<?xml version="1.0" encoding="UTF-8"?>
<!DOCTYPE svg PUBLIC "-//W3C//DTD SVG 1.1//EN" "http://www.w3.org/Graphics/SVG/1.1/DTD/svg11.dtd">
<svg xmlns="http://www.w3.org/2000/svg" version="1.1" width="500px" height="124px" style="shape-rendering:geometricPrecision; text-rendering:geometricPrecision; image-rendering:optimizeQuality; fill-rule:evenodd; clip-rule:evenodd" xmlns:xlink="http://www.w3.org/1999/xlink">
<g><path style="opacity:1" fill="#fefefe" d="M -0.5,-0.5 C 166.167,-0.5 332.833,-0.5 499.5,-0.5C 499.5,40.8333 499.5,82.1667 499.5,123.5C 332.833,123.5 166.167,123.5 -0.5,123.5C -0.5,82.1667 -0.5,40.8333 -0.5,-0.5 Z"/></g>
<g><path style="opacity:1" fill="#db4fa5" d="M 92.5,22.5 C 98.5933,22.1392 104.593,22.6392 110.5,24C 111.576,25.7261 111.743,27.5594 111,29.5C 103.393,50.9884 95.393,72.3217 87,93.5C 85.1741,95.0738 83.0075,95.9071 80.5,96C 76.5,96.6667 72.5,96.6667 68.5,96C 66.3333,95.1667 64.8333,93.6667 64,91.5C 57.802,72.5721 51.802,53.5721 46,34.5C 44.3676,32.0666 42.8676,29.5666 41.5,27C 41.7591,25.7387 42.4258,24.7387 43.5,24C 48.5,23.3333 53.5,23.3333 58.5,24C 60.8689,24.5359 62.8689,25.7026 64.5,27.5C 68.9598,42.006 72.7931,56.6727 76,71.5C 81.331,56.4999 85.6643,41.1666 89,25.5C 90.1451,24.3636 91.3117,23.3636 92.5,22.5 Z"/></g>
<g><path style="opacity:1" fill="#db50a5" d="M 240.5,22.5 C 246.221,22.3686 251.888,22.8686 257.5,24C 259.223,24.7751 260.223,26.1084 260.5,28C 258.641,32.8871 256.141,37.3871 253,41.5C 246.634,47.531 240.634,53.8643 235,60.5C 234.851,71.5419 234.184,82.5419 233,93.5C 224.113,100.255 217.613,98.4212 213.5,88C 214.746,83.4745 215.412,78.8078 215.5,74C 215.167,69.8333 214.833,65.6667 214.5,61.5C 204.989,52.8084 197.155,42.8084 191,31.5C 190.333,29.5 190.333,27.5 191,25.5C 197.197,24.0639 203.363,24.2306 209.5,26C 214.228,30.6173 217.561,36.1173 219.5,42.5C 220.651,43.731 221.817,43.731 223,42.5C 223.21,43.8029 223.043,45.1362 222.5,46.5C 222.453,48.0004 223.119,49.0004 224.5,49.5C 228.876,43.2509 232.876,36.7509 236.5,30C 235.5,29.6667 234.5,29.3333 233.5,29C 235.729,26.5997 238.063,24.433 240.5,22.5 Z"/></g>
<g><path style="opacity:1" fill="#db50a5" d="M 286.5,22.5 C 294.038,22.5248 301.372,23.6915 308.5,26C 310.815,27.1094 312.315,28.9427 313,31.5C 318.473,48.252 324.139,64.9187 330,81.5C 334.643,96.7778 329.477,101.444 314.5,95.5C 312.628,93.4649 310.961,91.2983 309.5,89C 309.994,87.5378 310.327,86.0378 310.5,84.5C 309.828,81.4877 309.161,78.4877 308.5,75.5C 301.128,76.6751 293.795,78.1751 286.5,80C 284.003,85.3315 281.003,90.3315 277.5,95C 271.668,98.1682 267.501,96.6682 265,90.5C 264.333,87.8333 264.333,85.1667 265,82.5C 268.099,77.8751 270.432,72.8751 272,67.5C 277.179,52.4678 282.012,37.4678 286.5,22.5 Z"/></g>
<g><path style="opacity:1" fill="#db50a5" d="M 363.5,22.5 C 371.337,21.968 379.003,22.8013 386.5,25C 395.543,33.1217 394.376,38.955 383,42.5C 375.983,34.6279 368.983,34.6279 362,42.5C 355.854,51.953 353.854,62.2863 356,73.5C 357.935,77.8019 361.268,79.8019 366,79.5C 370.761,79.5817 374.761,77.9151 378,74.5C 378.494,72.8659 378.66,71.1992 378.5,69.5C 369.574,72.1266 364.574,68.96 363.5,60C 363.643,57.849 364.643,56.1824 366.5,55C 375.732,52.2294 385.065,51.8961 394.5,54C 395.333,54.8333 396.167,55.6667 397,56.5C 396.979,68.6184 395.645,80.6184 393,92.5C 384.97,99.2321 379.97,97.5654 378,87.5C 370.175,97.2882 360.675,99.1216 349.5,93C 337.161,78.6275 334.328,62.4608 341,44.5C 345.77,34.2279 353.27,26.8946 363.5,22.5 Z"/></g>
<g><path style="opacity:1" fill="#db50a5" d="M 423.5,22.5 C 442.879,19.1019 454.046,27.1019 457,46.5C 458.798,61.435 455.465,75.1017 447,87.5C 437.549,96.2533 427.049,97.7533 415.5,92C 409.232,86.9684 405.399,80.4684 404,72.5C 403.333,64.1667 403.333,55.8333 404,47.5C 405.937,35.4181 412.437,27.0847 423.5,22.5 Z"/></g>
<g><path style="opacity:1" fill="#db50a5" d="M 143.5,22.5 C 165.276,18.9518 179.109,27.6185 185,48.5C 186.453,60.4517 184.453,71.7851 179,82.5C 174.702,89.5652 168.535,94.0652 160.5,96C 129.118,99.2851 114.952,85.1184 118,53.5C 120.618,38.0712 129.118,27.7379 143.5,22.5 Z"/></g>
<g><path style="opacity:1" fill="#fefbfd" d="M 427.5,35.5 C 434.236,35.2351 437.736,38.5684 438,45.5C 438.752,54.208 438.419,62.8746 437,71.5C 434.146,78.5157 429.48,80.1823 423,76.5C 415.985,61.8466 417.485,48.18 427.5,35.5 Z"/></g>
<g><path style="opacity:1" fill="#fefcfd" d="M 147.5,37.5 C 156.739,35.8536 162.239,39.5203 164,48.5C 164.667,55.5 164.667,62.5 164,69.5C 161.448,79.0304 155.282,82.8637 145.5,81C 138.187,76.5873 135.187,70.0873 136.5,61.5C 135.381,51.0829 139.048,43.0829 147.5,37.5 Z"/></g>
<g><path style="opacity:1" fill="#fdf4f9" d="M 297.5,47.5 C 298.117,47.6107 298.617,47.944 299,48.5C 300.802,53.0952 302.302,57.7619 303.5,62.5C 299.846,62.9422 296.179,63.2756 292.5,63.5C 293.766,58.0346 295.433,52.7013 297.5,47.5 Z"/></g>
</svg>
